External Loads File
version=1
nRows=55
nColumns=13
Range=5.000000e-03-10 seconds
endheader
time 	forceRightX 	forceRightY 	forceRightZ 	pointRightX 	pointRightY 	pointRightZ 	forceLeftX 	forceLeftY 	forceLeftZ 	pointLeftX 	pointLeftY 	pointLeftZ 		
0.005000 44.183947 98.047580 -0.000000 0.256426 0.490580 -0.110920 -17.300724 393.018539 -0.000000 0.323040 0.145870 -0.356573
0.010000 43.138438 97.824960 -0.000000 0.257229 0.490802 -0.110889 -16.977044 394.678601 -0.000000 0.322238 0.145656 -0.356540
0.015000 42.175089 97.553662 -0.000000 0.258288 0.490992 -0.110945 -16.322281 396.192627 -0.000000 0.321395 0.145403 -0.356557
0.020000 41.369748 97.244679 -0.000000 0.259083 0.492047 -0.111090 -15.079271 397.445993 -0.000000 0.319900 0.145217 -0.358367
0.025000 40.751544 96.926090 -0.000000 0.259615 0.493592 -0.116268 -13.198779 398.422553 -0.000000 0.317859 0.144751 -0.358960
0.030000 39.521683 96.932895 -0.000000 0.260867 0.492905 -0.110848 -14.086207 399.069818 -0.000000 0.318360 0.144672 -0.357491
0.035000 38.475771 96.907198 -0.000000 0.261620 0.491754 -0.111177 -14.586959 399.574000 -0.000000 0.318082 0.144417 -0.356492
0.040000 37.761286 96.781159 -0.000000 0.262411 0.491907 -0.111384 -14.148722 400.009422 -0.000000 0.317231 0.144235 -0.356497
0.045000 37.161743 96.647946 -0.000000 0.263245 0.492091 -0.111422 -13.668850 400.366710 -0.000000 0.316426 0.144042 -0.356515
0.050000 36.666972 96.534012 -0.000000 0.264018 0.492349 -0.111402 -13.162878 400.677518 -0.000000 0.315592 0.143830 -0.356498
0.055000 36.253830 96.483621 -0.000000 0.264769 0.493170 -0.111183 -12.691096 401.003960 -0.000000 0.314856 0.143733 -0.356490
0.060000 35.915777 96.525720 -0.000000 0.265511 0.493336 -0.111190 -12.241148 401.375664 -0.000000 0.314057 0.143563 -0.356523
0.065000 35.621234 96.662804 -0.000000 0.266189 0.493730 -0.111209 -11.887278 401.731770 -0.000000 0.313343 0.143367 -0.356493
0.070000 35.364990 96.854244 -0.000000 0.266892 0.493603 -0.111215 -11.579697 401.992983 -0.000000 0.312651 0.143267 -0.356485
0.075000 35.160399 97.039382 -0.000000 0.267524 0.493988 -0.111216 -11.199425 402.138995 -0.000000 0.311983 0.143102 -0.356505
0.080000 34.970173 97.179995 -0.000000 0.268095 0.494111 -0.111215 -10.841703 402.185869 -0.000000 0.311327 0.142985 -0.356472
0.085000 34.782204 97.252878 -0.000000 0.268635 0.494270 -0.111248 -10.474513 402.133198 -0.000000 0.310750 0.142914 -0.356484
0.090000 34.580427 97.265975 -0.000000 0.269115 0.494366 -0.111227 -10.060097 401.933076 -0.000000 0.310199 0.142832 -0.356476
0.095000 34.335081 97.243144 -0.000000 0.269557 0.494164 -0.111185 -9.628114 401.527034 -0.000000 0.309692 0.142744 -0.356443
0.100000 34.056332 97.194755 -0.000000 0.269978 0.494549 -0.111178 -9.079858 400.929239 -0.000000 0.309248 0.142712 -0.356425
0.105000 33.711052 97.153709 -0.000000 0.270342 0.494612 -0.111216 -8.538883 400.241542 -0.000000 0.308808 0.142665 -0.356441
0.110000 33.295354 97.148767 -0.000000 0.270639 0.494677 -0.111247 -8.065795 399.571963 -0.000000 0.308436 0.142613 -0.356434
0.115000 32.840658 97.191241 -0.000000 0.270899 0.494761 -0.111257 -7.648441 398.955480 -0.000000 0.308139 0.142571 -0.356418
0.120000 32.388487 97.276435 -0.000000 0.271119 0.494827 -0.111255 -7.283929 398.388891 -0.000000 0.307892 0.142539 -0.356408
0.125000 31.973102 97.391238 -0.000000 0.271291 0.494871 -0.111253 -6.993664 397.876884 -0.000000 0.307694 0.142528 -0.356406
0.130000 31.617745 97.522852 -0.000000 0.271420 0.494917 -0.111251 -6.786883 397.404607 -0.000000 0.307549 0.142525 -0.356382
0.135000 31.330708 97.658153 -0.000000 0.271490 0.494931 -0.111250 -6.672259 396.907397 -0.000000 0.307447 0.142512 -0.356364
0.140000 31.121445 97.771345 -0.000000 0.271522 0.494941 -0.111268 -6.628130 396.291983 -0.000000 0.307396 0.142499 -0.356372
0.145000 30.987909 97.845850 -0.000000 0.271491 0.494955 -0.111270 -6.675929 395.495550 -0.000000 0.307397 0.142518 -0.356384
0.150000 30.932594 97.893432 -0.000000 0.271413 0.494953 -0.111288 -6.817932 394.537442 -0.000000 0.307465 0.142554 -0.356380
0.155000 30.962185 97.942291 -0.000000 0.271277 0.494925 -0.111302 -7.028063 393.482247 -0.000000 0.307559 0.142570 -0.356401
0.160000 31.066376 98.018561 -0.000000 0.271107 0.494880 -0.111328 -7.310334 392.359497 -0.000000 0.307717 0.142595 -0.356419
0.165000 31.239737 98.136745 -0.000000 0.270890 0.494846 -0.111358 -7.620717 391.176417 -0.000000 0.307908 0.142623 -0.356418
0.170000 31.475134 98.303695 -0.000000 0.270650 0.494796 -0.111368 -7.937656 389.986107 -0.000000 0.308144 0.142678 -0.356424
0.175000 31.750660 98.515002 -0.000000 0.270368 0.494718 -0.111360 -8.319876 388.887284 -0.000000 0.308460 0.142746 -0.356441
0.180000 32.062529 98.741737 -0.000000 0.270017 0.494682 -0.111349 -8.748547 387.960543 -0.000000 0.308829 0.142816 -0.356438
0.185000 32.412957 98.941518 -0.000000 0.269624 0.494622 -0.111340 -9.163246 387.205474 -0.000000 0.309229 0.142874 -0.356430
0.190000 32.800910 99.077289 -0.000000 0.269215 0.494566 -0.111371 -9.495954 386.539610 -0.000000 0.309643 0.142937 -0.356430
0.195000 33.195321 99.148332 -0.000000 0.268799 0.494510 -0.111414 -9.769962 385.874772 -0.000000 0.310101 0.143011 -0.356460
0.200000 33.554281 99.188475 -0.000000 0.268359 0.494405 -0.111434 -10.037505 385.185248 -0.000000 0.310622 0.143083 -0.356467
0.205000 33.857220 99.228470 -0.000000 0.267868 0.494276 -0.111423 -10.281378 384.479334 -0.000000 0.311152 0.143156 -0.356466
0.210000 34.083141 99.276846 -0.000000 0.267351 0.494180 -0.111454 -10.518431 383.744937 -0.000000 0.311720 0.143291 -0.356482
0.215000 34.225098 99.316091 -0.000000 0.266808 0.493739 -0.111487 -10.766604 382.975981 -0.000000 0.312299 0.143400 -0.356497
0.220000 34.330612 99.310178 -0.000000 0.266238 0.493972 -0.111490 -10.900585 382.225224 -0.000000 0.312913 0.143489 -0.356462
0.225000 34.386831 99.269674 -0.000000 0.265650 0.493860 -0.111467 -11.060260 381.574914 -0.000000 0.313532 0.143609 -0.356521
0.230000 34.438312 99.216111 -0.000000 0.265070 0.493756 -0.111478 -11.150873 381.089691 -0.000000 0.314128 0.143772 -0.356529
0.235000 34.437500 99.203779 -0.000000 0.264459 0.493315 -0.111476 -11.410320 380.764777 -0.000000 0.314825 0.143871 -0.356498
0.240000 34.502864 99.201200 -0.000000 0.263867 0.493533 -0.111483 -11.437533 380.574299 -0.000000 0.315429 0.143923 -0.356533
0.245000 34.569088 99.219685 -0.000000 0.263296 0.493422 -0.111504 -11.547631 380.494985 -0.000000 0.316027 0.144091 -0.356575
0.250000 34.630315 99.246156 -0.000000 0.262690 0.493222 -0.111522 -11.831011 380.561035 -0.000000 0.316685 0.144190 -0.356579
0.255000 34.742665 99.246857 -0.000000 0.262081 0.493153 -0.111521 -12.123842 380.787946 -0.000000 0.317278 0.144331 -0.356545
0.260000 34.885947 99.223494 -0.000000 0.261515 0.493020 -0.111474 -12.522566 381.091771 -0.000000 0.317918 0.144474 -0.356566
0.265000 35.074816 99.183874 -0.000000 0.260932 0.492873 -0.111462 -12.964025 381.368833 -0.000000 0.318511 0.144618 -0.356574
0.270000 35.316892 99.152906 -0.000000 0.260371 0.492692 -0.111476 -13.406231 381.582044 -0.000000 0.319052 0.144778 -0.356586
0.275000 35.596707 99.165361 -0.000000 0.259834 0.492558 -0.111487 -13.901519 381.758090 -0.000000 0.319603 0.144937 -0.356590
